<?xml version="1.0" encoding="utf-8"?>
<!-- Generator: Adobe Illustrator 16.0.0, SVG Export Plug-In . SVG Version: 6.00 Build 0)  -->
<!DOCTYPE svg PUBLIC "-//W3C//DTD SVG 1.1//EN" "http://www.w3.org/Graphics/SVG/1.1/DTD/svg11.dtd">
<svg version="1.1" id="Layer_1" xmlns="http://www.w3.org/2000/svg" xmlns:xlink="http://www.w3.org/1999/xlink" x="0px" y="0px"
	 width="1280px" height="800px" viewBox="0 0 1280 800" enable-background="new 0 0 1280 800" xml:space="preserve">
<g>
	<linearGradient id="SVGID_1_" gradientUnits="userSpaceOnUse" x1="21.2593" y1="-6.5342" x2="1980.0127" y2="1280.4347">
		<stop  offset="0" style="stop-color:#FFFFFF"/>
		<stop  offset="1" style="stop-color:#007BFF"/>
	</linearGradient>
	<rect fill="url(#SVGID_1_)" width="1280" height="800"/>
	<polyline fill="#007BFF" points="1110,536.5 1117,656 1267,643 	"/>
	<polyline fill="#F8F9FA" points="1007.988,596.464 1062.376,650.528 972.048,674.421 	"/>
	<polyline fill="#F8F9FA" points="1016.852,514.21 929.012,484.979 964.663,565.098 	"/>
	<polyline fill="#007BFF" points="1094.701,720.229 1108.94,820.459 1175.781,753.636 	"/>
	<polyline fill="#007BFF" points="1031.436,689.656 992.941,751.892 1054.01,747.585 	"/>
	<polyline fill="#FFFFFF" points="1203,528 1304,626.982 1312,411.277 	"/>
	<polyline fill="#F8F9FA" points="1101.76,444.642 1053.852,473.081 1116.503,477.636 	"/>
	<polyline fill="#F8F9FA" points="1181,694.25 1246,747 1246,676 	"/>
	<polyline fill="#F8F9FA" points="882.422,675.485 821.068,778.271 952.454,851.801 	"/>
	<polyline fill="#007BFF" points="764.344,667.77 778.956,743.053 690.811,712.063 	"/>
	<polyline fill="#007BFF" points="817.893,604.709 761.655,531.172 746.129,617.479 	"/>
	<polyline fill="#F8F9FA" points="731.377,758.035 664.563,787.888 717.501,818.639 	"/>
	<polyline fill="#007BFF" points="927.22,594.869 871.609,591.476 920.877,630.447 	"/>
	<polyline fill="#007BFF" points="1238.344,301.77 1252.956,377.053 1164.811,346.063 	"/>
	<polyline fill="#007BFF" points="1205.377,392.035 1138.563,421.888 1191.501,452.639 	"/>
	<g display="none">
		
			<rect x="525" y="238.5" display="inline" fill="none" stroke="#6C757D" stroke-width="2" stroke-linejoin="round" stroke-miterlimit="10" width="230" height="42"/>
		
			<text transform="matrix(1 0 0 1 537.2261 264)" display="inline" fill="#6C757D" font-family="'HelveticaWorld-Regular'" font-size="12">Felhasználónév</text>
		
			<rect x="525" y="302.5" display="inline" fill="none" stroke="#6C757D" stroke-width="2" stroke-linejoin="round" stroke-miterlimit="10" width="230" height="42"/>
		
			<rect x="602.5" y="366.5" display="inline" fill="#007BFF" stroke="#007BFF" stroke-width="2" stroke-linejoin="round" stroke-miterlimit="10" width="75" height="25"/>
		
			<text transform="matrix(1 0 0 1 537.2261 328)" display="inline" fill="#6C757D" font-family="'HelveticaWorld-Regular'" font-size="12">Jelszó</text>
		
			<text transform="matrix(1 0 0 1 618.2827 382.6494)" display="inline" fill="#FFFFFF" font-family="'HelveticaWorld-Regular'" font-size="12">Belépés</text>
		
			<text transform="matrix(1 0 0 1 609.2183 410.9824)" display="inline" fill="#007BFF" font-family="'HelveticaWorld-Regular'" font-size="12">Regisztáció</text>
	</g>
</g>
<g display="none">
	<circle display="inline" fill="#007BFF" cx="209.821" cy="210.858" r="171.144"/>
	<circle display="inline" fill="#F8F9FA" cx="209.821" cy="210.858" r="116.433"/>
	<g display="inline">
		<path fill="#FFFFFF" d="M111.143,114.869c0.676,0.697,1.471,1.002,2.386,0.916c0.915-0.086,1.852-0.594,2.812-1.524
			s1.54-1.792,1.742-2.589c0.201-0.797,0.011-1.496-0.572-2.097c-0.347-0.358-0.776-0.543-1.29-0.554
			c-0.513-0.011-1.367,0.339-2.563,1.05l-2.938,1.768c-1.863,1.11-3.367,1.622-4.513,1.535c-1.145-0.087-2.244-0.675-3.298-1.763
			c-1.233-1.273-1.79-2.752-1.668-4.438c0.122-1.687,1.087-3.407,2.897-5.161c1.798-1.741,3.602-2.609,5.413-2.603
			c1.812,0.007,3.312,0.618,4.502,1.833l-2.831,2.743c-0.733-0.629-1.512-0.895-2.335-0.797c-0.824,0.097-1.693,0.589-2.608,1.475
			c-0.736,0.713-1.182,1.439-1.338,2.18c-0.156,0.741,0.016,1.37,0.518,1.889c0.347,0.358,0.734,0.56,1.162,0.604
			c0.428,0.045,0.915-0.092,1.461-0.412l4.673-2.723c1.686-0.987,3.089-1.42,4.211-1.299c1.123,0.122,2.137,0.65,3.041,1.584
			c1.488,1.535,2.072,3.204,1.754,5.007c-0.318,1.803-1.264,3.467-2.838,4.991c-2.034,1.971-3.969,3.005-5.803,3.102
			c-1.835,0.097-3.438-0.562-4.807-1.976L111.143,114.869z"/>
		<path fill="#FFFFFF" d="M136.476,101.365l-12.228,9.281l-2.101-2.767l0.415-16.249l-7.865,5.969l-2.1-2.767l11.962-9.079
			l1.946,2.565l-0.367,16.532l8.237-6.252L136.476,101.365z"/>
		<path fill="#FFFFFF" d="M145.08,96.294l-3.537,2.077l-8.186-13.941l-5.115,3.003l-1.759-2.996l13.78-8.09l1.759,2.996l-5.128,3.01
			L145.08,96.294z"/>
		<path fill="#FFFFFF" d="M158.175,72.224l-9.57,4.126l1.635,3.791l8.797-3.792l1.375,3.19l-8.797,3.792l2.016,4.674l9.999-4.311
			l1.375,3.19l-13.691,5.903l-7.775-18.036l13.263-5.718L158.175,72.224z"/>
		<path fill="#FFFFFF" d="M183.022,76.111c0.486,2.018,0.339,3.647-0.443,4.89c-0.781,1.242-2.125,2.093-4.029,2.552
			c-2.234,0.539-3.977,0.427-5.228-0.334s-2.143-2.264-2.675-4.509l-0.316-1.312l3.728-0.899l0.094,0.39
			c0.403,1.671,0.846,2.726,1.327,3.165c0.481,0.438,1.146,0.555,1.994,0.35c0.797-0.192,1.321-0.524,1.574-0.998
			c0.252-0.473,0.258-1.208,0.019-2.204l-3.302-13.69l3.987-0.961L183.022,76.111z"/>
		<path fill="#FFFFFF" d="M195.044,69.47l8.156-0.879l1.135,10.534l-2.731,0.294l-0.662-2.401c-1.293,2.137-3.246,3.346-5.859,3.628
			s-4.852-0.42-6.713-2.105s-2.959-4.073-3.292-7.164c-0.333-3.09,0.253-5.678,1.759-7.762s3.734-3.285,6.686-3.603
			c2.526-0.272,4.61,0.146,6.254,1.254c1.644,1.109,2.653,2.574,3.029,4.397l-4.078,0.439c-0.354-0.947-0.952-1.669-1.799-2.165
			s-1.792-0.687-2.837-0.574c-1.745,0.188-3.048,0.959-3.909,2.316c-0.862,1.356-1.176,3.119-0.942,5.288
			c0.232,2.161,0.893,3.772,1.98,4.833c1.088,1.061,2.567,1.49,4.438,1.289c1.056-0.114,1.985-0.559,2.79-1.335
			c0.804-0.776,1.303-1.937,1.495-3.48l-4.543,0.49L195.044,69.47z"/>
		<path fill="#FFFFFF" d="M213.767,79.354l-4.101-0.066l0.12-7.415l-6.588-12.333l4.836,0.078l3.936,8.603l4.026-8.473l4.648,0.075
			l-6.758,12.17L213.767,79.354z"/>
		<path fill="#FFFFFF" d="M225.326,80.177l-4.063-0.568l2.723-19.451l8.878,1.243c1.853,0.259,3.246,1.021,4.18,2.285
			c0.934,1.264,1.266,2.862,0.995,4.793c-0.233,1.667-0.97,3.044-2.21,4.129s-2.861,1.488-4.864,1.208l-4.657-0.652L225.326,80.177z
			 M230.549,70.332c1.032,0.145,1.829,0.011,2.391-0.401c0.561-0.412,0.912-1.12,1.053-2.126c0.142-1.014-0.038-1.77-0.539-2.268
			c-0.502-0.498-1.304-0.823-2.406-0.978l-3.467-0.485l-0.802,5.729L230.549,70.332z"/>
		<path fill="#FFFFFF" d="M241.808,83.168l-3.95-1.104l5.289-18.915l3.95,1.104l-2.151,7.694l9.383-5.672l5.108,1.428l-9.887,5.587
			l5.048,13.453l-5.095-1.425l-3.521-9.933l-2.382,1.374L241.808,83.168z"/>
		<path fill="#FFFFFF" d="M267.141,85.657c-0.431,0.87-0.452,1.722-0.064,2.555s1.18,1.546,2.377,2.139s2.205,0.851,3.023,0.774
			s1.413-0.49,1.785-1.241c0.221-0.447,0.251-0.914,0.09-1.401s-0.777-1.175-1.848-2.063l-2.649-2.177
			c-1.67-1.384-2.656-2.63-2.957-3.738s-0.115-2.341,0.557-3.698c0.787-1.588,1.995-2.608,3.624-3.058
			c1.63-0.45,3.574-0.116,5.833,1.002c2.243,1.111,3.664,2.521,4.265,4.229c0.6,1.708,0.525,3.327-0.221,4.855l-3.532-1.749
			c0.347-0.902,0.337-1.724-0.03-2.468s-1.122-1.398-2.263-1.963c-0.918-0.455-1.753-0.631-2.503-0.531
			c-0.751,0.101-1.286,0.474-1.606,1.121c-0.221,0.447-0.281,0.879-0.18,1.297c0.101,0.417,0.394,0.831,0.877,1.239l4.13,3.492
			c1.494,1.257,2.372,2.435,2.634,3.533c0.261,1.099,0.103,2.23-0.475,3.396c-0.948,1.916-2.326,3.025-4.131,3.329
			c-1.806,0.304-3.69-0.031-5.653-1.003c-2.538-1.257-4.16-2.733-4.866-4.43c-0.705-1.696-0.621-3.426,0.253-5.19L267.141,85.657z"
			/>
		<path fill="#FFFFFF" d="M288.332,105.017L275.5,96.591l1.906-2.904l15.454-5.037l-8.253-5.419l1.906-2.904l12.554,8.242
			l-1.768,2.692l-15.705,5.176l8.645,5.676L288.332,105.017z"/>
		<path fill="#FFFFFF" d="M292.656,108.634l-3.142-2.637l12.625-15.045l10.705,8.984l-2.232,2.661l-7.563-6.347l-2.843,3.388
			l6.622,5.557l-2.233,2.661l-6.622-5.557L292.656,108.634z"/>
		<path fill="#FFFFFF" d="M307.025,122.195l-2.812-2.987l11.771-11.082l-4.066-4.319l2.529-2.381l10.953,11.635l-2.529,2.381
			l-4.075-4.329L307.025,122.195z"/>
		<path fill="#FFFFFF" d="M314.452,131.081l-2.54-3.221l15.422-12.162l2.539,3.221L314.452,131.081z"/>
	</g>
	<g display="inline">
		<path fill="#FFFFFF" d="M141.56,346.141l-3.306-1.942l6.72-11.439l1.643-2.691l-0.092-0.054l-11.484,12.297l-3.468-2.037
			l5.229-15.972l-0.081-0.047l-1.563,2.739l-6.72,11.439l-3.307-1.942l9.948-16.935l5.173,3.039l-4.791,15.145l0.069,0.041
			l10.85-11.585l5.127,3.011L141.56,346.141z"/>
		<path fill="#FFFFFF" d="M159.883,349.262c-0.988,1.219-2.166,1.977-3.533,2.273c-1.366,0.296-2.753,0.151-4.16-0.433
			c-2.213-0.918-3.65-2.231-4.311-3.938c-0.661-1.707-0.543-3.642,0.355-5.805c0.901-2.172,2.177-3.694,3.826-4.567
			c1.65-0.873,3.565-0.856,5.745,0.048c1.958,0.813,3.242,2.074,3.854,3.784s0.408,3.791-0.609,6.242l-0.261,0.629l-9.341-3.877
			c-0.372,1.128-0.393,2.082-0.06,2.861c0.332,0.779,0.979,1.369,1.942,1.768c0.575,0.239,1.129,0.312,1.659,0.219
			c0.53-0.093,0.948-0.332,1.252-0.717L159.883,349.262z M158.102,343.691c0.281-0.886,0.286-1.689,0.017-2.409
			c-0.271-0.72-0.792-1.24-1.565-1.561c-1.679-0.696-3.029-0.148-4.054,1.645L158.102,343.691z M159.341,335.757l-2.555-1.061
			l3.913-2.701l3.888,1.613L159.341,335.757z"/>
		<path fill="#FFFFFF" d="M174.771,358.123l-3.611-1.027l0.501-1.761l-0.052-0.015c-1.253,1.181-2.809,1.507-4.667,0.979
			c-1.852-0.527-3.099-1.627-3.743-3.301c-0.645-1.674-0.645-3.642-0.001-5.904c0.631-2.219,1.675-3.82,3.131-4.805
			c1.456-0.984,3.032-1.235,4.729-0.752c1.799,0.512,2.945,1.625,3.439,3.34l0.051,0.015l1.908-6.708l3.688,1.049L174.771,358.123z
			 M166.916,348.43c-0.351,1.233-0.37,2.326-0.057,3.276s0.937,1.558,1.87,1.824c1.037,0.295,1.944,0.157,2.723-0.413
			s1.341-1.464,1.687-2.681c0.424-1.491,0.478-2.688,0.161-3.593c-0.317-0.905-0.998-1.506-2.044-1.804
			c-0.985-0.28-1.859-0.121-2.622,0.477C167.871,346.113,167.299,347.084,166.916,348.43z"/>
		<path fill="#FFFFFF" d="M185.808,345.405l-2.744,14.302l-3.766-0.722l2.743-14.303L185.808,345.405z M186.132,343.712
			l-3.766-0.722l0.67-3.49l3.766,0.722L186.132,343.712z"/>
		<path fill="#FFFFFF" d="M199.866,359.009c-0.071,0.665-0.065,1.191,0.018,1.581s0.275,0.646,0.576,0.768l-0.062,0.571
			l-4.078-0.439c-0.125-0.506-0.188-1.091-0.188-1.754c-1.391,1.266-3.078,1.792-5.062,1.578c-1.373-0.148-2.437-0.648-3.191-1.5
			s-1.063-1.924-0.923-3.217c0.134-1.24,0.608-2.223,1.426-2.95c0.818-0.727,1.964-1.119,3.439-1.175l3.616-0.135
			c0.494-0.018,0.858-0.116,1.093-0.292s0.368-0.419,0.401-0.729c0.06-0.558-0.099-1.002-0.475-1.334
			c-0.376-0.332-0.985-0.543-1.826-0.633c-0.877-0.095-1.534-0.004-1.972,0.271s-0.743,0.767-0.918,1.474l-3.68-0.396
			c0.376-1.742,1.114-2.962,2.216-3.658c1.101-0.697,2.762-0.925,4.985-0.686c1.788,0.193,3.18,0.706,4.175,1.539
			c0.994,0.833,1.418,1.926,1.272,3.281L199.866,359.009z M196.598,354.424c-0.505,0.277-1.445,0.44-2.821,0.489
			c-1.15,0.038-1.92,0.212-2.307,0.524c-0.388,0.312-0.612,0.756-0.675,1.332c-0.062,0.576,0.077,1.029,0.418,1.362
			c0.34,0.333,0.768,0.526,1.281,0.582c0.974,0.105,1.847-0.077,2.618-0.544s1.201-1.109,1.289-1.924L196.598,354.424z"/>
		<path fill="#FFFFFF" d="M225.333,361.635l-3.833,0.125l-0.289-8.907c-0.027-0.845-0.219-1.519-0.573-2.02
			c-0.355-0.501-0.911-0.739-1.668-0.715c-0.757,0.025-1.358,0.28-1.806,0.767c-0.448,0.487-0.656,1.207-0.625,2.159l0.287,8.867
			l-3.832,0.125l-0.295-9.081c-0.029-0.908-0.233-1.567-0.612-1.979c-0.379-0.411-0.969-0.604-1.77-0.577
			c-0.802,0.026-1.391,0.283-1.767,0.772c-0.376,0.489-0.549,1.205-0.519,2.149l0.288,8.867l-3.833,0.125l-0.472-14.556l3.672-0.119
			l0.069,2.137l0.054-0.002c0.8-1.701,2.18-2.584,4.138-2.647c1.78-0.058,3.123,0.674,4.028,2.195c0.92-1.581,2.19-2.397,3.811-2.45
			c1.495-0.048,2.727,0.337,3.693,1.157c0.967,0.82,1.476,2,1.525,3.54L225.333,361.635z"/>
		<path fill="#FFFFFF" d="M243.106,358.523l-3.603,0.647l-0.364-2.025l-0.052,0.009c-0.668,1.776-1.979,2.839-3.935,3.19
			c-1.517,0.272-2.789,0.039-3.817-0.7s-1.698-1.976-2.01-3.711l-1.692-9.429l3.774-0.677l1.597,8.9
			c0.164,0.913,0.494,1.544,0.992,1.895c0.497,0.351,1.14,0.455,1.929,0.313c0.851-0.153,1.497-0.561,1.938-1.224
			c0.442-0.664,0.569-1.518,0.382-2.563l-1.485-8.281l3.773-0.677L243.106,358.523z M232.021,343.721l-2.552,0.458l1.662-4.357
			l4.011-0.72L232.021,343.721z M237.926,342.662l-2.552,0.458l1.662-4.357l4.011-0.72L237.926,342.662z"/>
		<path fill="#FFFFFF" d="M260.472,353.519l-3.667,1.121l-2.645-8.65c-0.261-0.852-0.649-1.431-1.168-1.739
			c-0.518-0.308-1.181-0.337-1.99-0.09c-0.911,0.279-1.525,0.797-1.844,1.556c-0.317,0.759-0.333,1.606-0.046,2.543l2.441,7.985
			l-3.667,1.121l-5.743-18.782l3.667-1.122l2.027,6.631l0.052-0.016c0.399-1.678,1.541-2.804,3.423-3.38
			c1.448-0.443,2.738-0.374,3.871,0.207c1.132,0.581,1.913,1.573,2.343,2.979L260.472,353.519z"/>
		<path fill="#FFFFFF" d="M274.912,342.805c0.195,1.558-0.074,2.932-0.808,4.123c-0.734,1.191-1.799,2.091-3.194,2.701
			c-2.195,0.96-4.138,1.087-5.826,0.381s-3.002-2.131-3.94-4.278c-0.941-2.154-1.155-4.129-0.642-5.923
			c0.514-1.794,1.852-3.164,4.015-4.109c1.941-0.849,3.741-0.901,5.398-0.158c1.656,0.744,3.017,2.332,4.079,4.764l0.273,0.625
			l-9.268,4.05c0.556,1.05,1.229,1.725,2.022,2.025c0.792,0.301,1.665,0.242,2.62-0.175c0.571-0.25,1.008-0.598,1.308-1.045
			c0.301-0.447,0.417-0.914,0.351-1.4L274.912,342.805z M269.661,340.23c-0.444-0.816-1.021-1.377-1.727-1.681
			s-1.443-0.288-2.21,0.047c-1.665,0.728-2.206,2.082-1.622,4.063L269.661,340.23z"/>
		<path fill="#FFFFFF" d="M283.182,343.11l-3.375,1.82l-9.323-17.287l3.375-1.82L283.182,343.11z"/>
		<path fill="#FFFFFF" d="M293.739,336.378c0.52,2.126,0.813,3.577,0.879,4.351c0.067,0.774-0.033,1.437-0.303,1.988
			c-0.269,0.551-0.926,1.167-1.972,1.845c-0.538,0.349-1.041,0.638-1.508,0.867l-1.651-2.544c0.251-0.12,0.553-0.294,0.903-0.522
			c0.464-0.301,0.779-0.644,0.949-1.03c0.169-0.386,0.088-1.055-0.244-2.008l-12.797-9.806l3.587-2.327l8.451,7.306l0.056-0.036
			l-3.34-10.622l3.396-2.204L293.739,336.378z"/>
	</g>
	<path display="inline" d="M163.135,163.791C145.541,167.856,146,184.776,146,184.776s0,43.161,0,66.63
		C146,274.869,171.346,273,171.346,273h76.944c0,0,11.185,0.855,18.653-5.554L163.135,163.791z"/>
	<path display="inline" fill="#007BFF" d="M275,251.406c0-23.469,0-66.63,0-66.63s0.43-22.398-25.432-22.398
		c0,0,1.449-15.377-14.135-15.377h-50.699c-15.588,0-13.728,15.377-13.728,15.377c-3.106,0-5.829,0.592-8.229,1.146l104.73,104.122
		C271.348,264.351,275,259.369,275,251.406z"/>
	<circle display="inline" fill="#FFFFFF" cx="211.75" cy="210.936" r="33.83"/>
</g>
</svg>
